<?xml version="1.0" standalone="no"?>
<!DOCTYPE svg PUBLIC "-//W3C//DTD SVG 20010904//EN"
 "http://www.w3.org/TR/2001/REC-SVG-20010904/DTD/svg10.dtd">
<svg version="1.0" xmlns="http://www.w3.org/2000/svg"
 width="1683.000000pt" height="1683.000000pt" viewBox="0 0 1683.000000 1683.000000"
 preserveAspectRatio="xMidYMid meet">
<metadata>
Created by potrace 1.14, written by Peter Selinger 2001-2017
</metadata>
<g transform="translate(0.000000,1683.000000) scale(0.100000,-0.100000)"
fill="#000000" stroke="none">
<path d="M190 14759 l0 -1881 113 140 c364 452 833 922 1302 1307 1183 969
2690 1687 4290 2044 597 133 1293 231 1810 255 l110 5 -135 -15 c-530 -56
-974 -134 -1385 -245 -1232 -332 -2309 -907 -3295 -1758 -178 -153 -606 -579
-760 -756 -1109 -1274 -1784 -2774 -1989 -4425 -59 -467 -55 -128 -58 -4888
l-3 -4362 4362 3 c2400 1 6103 4 8231 5 l3867 2 0 1882 c0 1079 -4 1878 -9
1872 -5 -5 -53 -65 -108 -134 -342 -428 -784 -874 -1243 -1256 -1464 -1217
-3368 -2020 -5400 -2278 -298 -38 -823 -83 -852 -74 -6 2 51 10 128 16 1619
141 3194 785 4458 1821 321 263 709 635 960 921 974 1111 1624 2420 1906 3840
63 317 98 572 142 1050 9 92 12 1271 15 4457 l3 4333 -8230 0 -8230 0 0 -1881z
m14367 -5456 c-3 -1673 -7 -2419 -15 -2493 -29 -267 -56 -414 -102 -553 -49
-146 -94 -221 -190 -318 -74 -76 -98 -93 -190 -137 -174 -85 -380 -128 -735
-153 -234 -17 -1296 -18 -1515 -1 -406 32 -664 92 -850 199 -93 54 -244 208
-298 305 -115 204 -181 500 -213 953 -16 222 -16 1014 0 1215 61 789 220 1167
580 1384 185 111 423 174 821 217 64 7 398 13 853 16 l747 5 0 579 c0 636 2
660 60 784 115 243 440 376 933 383 l118 2 -4 -2387z m-10050 1950 c-4 -430
-7 -455 -61 -548 -26 -44 -84 -91 -141 -113 -95 -38 -166 -44 -558 -49 l-388
-5 3 403 c3 378 5 408 24 466 38 111 98 169 213 203 106 32 185 37 559 39
l353 1 -4 -397z m-17 -3062 l0 -1749 363 -5 c199 -3 394 -10 432 -16 175 -28
284 -81 342 -168 60 -91 93 -257 93 -475 l0 -108 -1852 0 -1851 0 6 173 c7
198 23 286 69 377 57 111 151 163 357 196 71 12 206 17 514 21 l417 5 0 1364
0 1364 -632 0 -631 0 6 148 c10 245 42 358 127 443 98 98 274 147 610 168 69
4 464 9 878 10 l752 1 0 -1749z m1390 1739 c530 -36 701 -135 849 -490 22 -52
188 -493 369 -980 616 -1653 635 -1703 643 -1688 4 8 131 356 282 774 394
1089 633 1744 679 1859 158 397 304 488 843 525 146 9 505 14 505 6 0 -2 -360
-961 -800 -2131 -440 -1170 -800 -2129 -800 -2131 0 -2 -325 -3 -722 -2 l-723
3 -812 2125 c-447 1169 -812 2128 -813 2133 0 10 329 9 500 -3z"/>
<path d="M12191 9159 c-406 -31 -535 -159 -598 -594 -21 -146 -31 -1209 -13
-1438 20 -269 53 -405 123 -509 76 -114 184 -167 397 -195 167 -22 860 -13
970 12 263 60 343 196 370 630 5 95 10 594 10 1138 l0 967 -577 -1 c-318 -1
-625 -5 -682 -10z"/>
</g>
</svg>
